<svg width="32" height="32" viewBox="0 0 32 32" fill="none" xmlns="http://www.w3.org/2000/svg">
<path d="M19.4091 20.7294L18.8024 21.3694C18.8024 21.3694 17.3584 22.8881 13.4184 18.7401C9.47844 14.5921 10.9224 13.0734 10.9224 13.0734L11.3051 12.6694C12.2464 11.6774 12.3358 10.0854 11.5131 8.92276L9.83311 6.54543C8.81444 5.10543 6.84778 4.9161 5.68111 6.1441L3.58911 8.34543C3.01178 8.95476 2.62511 9.74276 2.67178 10.6188C2.79178 12.8588 3.74911 17.6761 9.08778 23.2988C14.7504 29.2588 20.0638 29.4961 22.2358 29.2814C22.9238 29.2148 23.5211 28.8428 24.0024 28.3361L25.8958 26.3414C27.1758 24.9948 26.8158 22.6881 25.1784 21.7468L22.6318 20.2801C21.5571 19.6628 20.2491 19.8441 19.4091 20.7281V20.7294Z" fill="#FF9241"/>
<path d="M22.6678 15.9994C24.1176 15.9991 25.5277 15.5263 26.6846 14.6525C27.8415 13.7787 28.682 12.5517 29.0788 11.1573C29.4756 9.76285 29.407 8.27709 28.8834 6.92516C28.3599 5.57323 27.4099 4.42881 26.1774 3.66533C24.945 2.90186 23.4973 2.56095 22.0536 2.69427C20.61 2.82759 19.2492 3.42786 18.1774 4.40413C17.1056 5.38039 16.3813 6.67943 16.1141 8.10438C15.847 9.52933 16.0517 11.0025 16.6971 12.3007C16.8192 12.5364 16.8509 12.8085 16.7865 13.066L16.3891 14.55C16.3498 14.697 16.3498 14.8516 16.3892 14.9986C16.4286 15.1455 16.5059 15.2795 16.6135 15.387C16.721 15.4946 16.855 15.5719 17.0019 15.6113C17.1488 15.6507 17.3035 15.6507 17.4505 15.6114L18.9345 15.214C19.1919 15.1496 19.4641 15.1813 19.6998 15.3034C20.6218 15.7624 21.6379 16.0007 22.6678 15.9994Z" fill="#FF9241"/>
</svg>
