<svg width="119" height="117" viewBox="0 0 119 117" fill="none" xmlns="http://www.w3.org/2000/svg">
<path d="M34.3262 78H78.2012C79.4941 78 80.7341 77.4864 81.6483 76.5721C82.5626 75.6579 83.0762 74.4179 83.0762 73.125V29.25C83.0762 27.9571 82.5626 26.7171 81.6483 25.8029C80.7341 24.8886 79.4941 24.375 78.2012 24.375H34.3262M34.3262 78H19.7012C18.4082 78 17.1683 77.4864 16.254 76.5721C15.3398 75.6579 14.8262 74.4179 14.8262 73.125V29.25C14.8262 27.9571 15.3398 26.7171 16.254 25.8029C17.1683 24.8886 18.4082 24.375 19.7012 24.375H34.3262M34.3262 78V73.125M34.3262 24.375V29.25" stroke="#14213D" stroke-width="2" stroke-linecap="round" stroke-linejoin="round"/>
<path d="M53.8262 97.5H97.7012C98.9941 97.5 100.234 96.9864 101.148 96.0721C102.063 95.1579 102.576 93.9179 102.576 92.625V48.75C102.576 47.4571 102.063 46.2171 101.148 45.3029C100.234 44.3886 98.9941 43.875 97.7012 43.875H83.0762M53.8262 97.5H39.2012C37.9082 97.5 36.6683 96.9864 35.754 96.0721C34.8398 95.1579 34.3262 93.9179 34.3262 92.625V80.4375M53.8262 97.5V92.625M34.3262 43.8799V43.875M34.3262 58.5049V58.5" stroke="#14213D" stroke-width="2" stroke-linecap="round" stroke-linejoin="round"/>
<rect x="75.5059" y="72.7642" width="30.1602" height="28.7822" fill="white"/>
<path d="M90.5868 63.6444C77.5854 63.6444 67.0762 74.1537 67.0762 87.155C67.0762 100.156 77.5854 110.666 90.5868 110.666C103.588 110.666 114.097 100.156 114.097 87.155C114.097 74.1537 103.588 63.6444 90.5868 63.6444ZM100.696 97.2646C100.479 97.4826 100.221 97.6555 99.9361 97.7735C99.6517 97.8914 99.3468 97.9522 99.0389 97.9522C98.731 97.9522 98.4261 97.8914 98.1417 97.7735C97.8572 97.6555 97.5989 97.4826 97.3814 97.2646L90.5868 90.47L83.7922 97.2646C83.3526 97.7042 82.7564 97.9512 82.1347 97.9512C81.5131 97.9512 80.9168 97.7042 80.4772 97.2646C80.0376 96.825 79.7907 96.2288 79.7907 95.6071C79.7907 95.2993 79.8513 94.9945 79.9691 94.7101C80.0869 94.4257 80.2596 94.1673 80.4772 93.9496L87.2718 87.155L80.4772 80.3605C80.0376 79.9209 79.7907 79.3247 79.7907 78.703C79.7907 78.0813 80.0376 77.4851 80.4772 77.0455C80.9168 76.6059 81.5131 76.3589 82.1347 76.3589C82.7564 76.3589 83.3526 76.6059 83.7922 77.0455L90.5868 83.84L97.3814 77.0455C97.5991 76.8278 97.8575 76.6551 98.1419 76.5373C98.4262 76.4195 98.7311 76.3589 99.0389 76.3589C99.3467 76.3589 99.6515 76.4195 99.9359 76.5373C100.22 76.6551 100.479 76.8278 100.696 77.0455C100.914 77.2631 101.087 77.5215 101.205 77.8059C101.322 78.0903 101.383 78.3951 101.383 78.703C101.383 79.0108 101.322 79.3156 101.205 79.6C101.087 79.8844 100.914 80.1428 100.696 80.3605L93.9018 87.155L100.696 93.9496C101.59 94.843 101.59 96.3477 100.696 97.2646Z" fill="#D44333"/>
</svg>
