<svg width="24" height="24" viewBox="0 0 24 24" fill="none" xmlns="http://www.w3.org/2000/svg">
<g clip-path="url(#clip0_7006_41823)">
<path d="M19.7146 16.2852H21.4289C21.8835 16.2852 22.3195 16.1045 22.641 15.7831C22.9625 15.4616 23.1431 15.0255 23.1431 14.5709V11.9994C23.1431 11.5448 22.9625 11.1088 22.641 10.7873C22.3195 10.4658 21.8835 10.2852 21.4289 10.2852H19.7146C19.4872 10.2852 19.2692 10.3755 19.1085 10.5362C18.9477 10.697 18.8574 10.915 18.8574 11.1423V15.428C18.8574 15.6553 18.9477 15.8734 19.1085 16.0341C19.2692 16.1949 19.4872 16.2852 19.7146 16.2852ZM19.7146 16.2852V17.5709C19.7146 18.4802 19.3533 19.3523 18.7104 19.9952C18.0674 20.6382 17.1953 20.9994 16.286 20.9994M2.57171 10.2852H4.28599C4.51332 10.2852 4.73134 10.3755 4.89208 10.5362C5.05283 10.697 5.14314 10.915 5.14314 11.1423V15.428C5.14314 15.6553 5.05283 15.8734 4.89208 16.0341C4.73134 16.1949 4.51332 16.2852 4.28599 16.2852H2.57171C2.11705 16.2852 1.68102 16.1045 1.35952 15.7831C1.03803 15.4616 0.857422 15.0255 0.857422 14.5709V11.9994C0.857422 11.5448 1.03803 11.1088 1.35952 10.7873C1.68102 10.4658 2.11705 10.2852 2.57171 10.2852Z" stroke="#FF9241" stroke-width="1.71429" stroke-linecap="round" stroke-linejoin="round"/>
<path d="M4.28516 10.286V8.57171C4.28516 6.52575 5.09791 4.56359 6.54462 3.11688C7.99133 1.67017 9.95349 0.857422 11.9994 0.857422C14.0454 0.857422 16.0076 1.67017 17.4543 3.11688C18.901 4.56359 19.7137 6.52575 19.7137 8.57171V10.286M9.42801 6.85742V9.42885M14.5709 6.85742V9.42885M9.42801 12.8574C9.42801 15.1374 14.5709 15.1374 14.5709 12.8574M14.1423 18.8574C14.7106 18.8574 15.2557 19.0832 15.6575 19.4851C16.0594 19.8869 16.2852 20.432 16.2852 21.0003C16.2852 21.5686 16.0594 22.1136 15.6575 22.5155C15.2557 22.9174 14.7106 23.1431 14.1423 23.1431H11.5709C11.0025 23.1431 10.4575 22.9174 10.0556 22.5155C9.65378 22.1136 9.42801 21.5686 9.42801 21.0003C9.42801 20.432 9.65378 19.8869 10.0556 19.4851C10.4575 19.0832 11.0025 18.8574 11.5709 18.8574H14.1423Z" stroke="#FF9241" stroke-width="1.71429" stroke-linecap="round" stroke-linejoin="round"/>
</g>
<defs>
<clipPath id="clip0_7006_41823">
<rect width="24" height="24" fill="white"/>
</clipPath>
</defs>
</svg>
