<svg width="113" height="112" viewBox="0 0 113 112" fill="none" xmlns="http://www.w3.org/2000/svg">
<path d="M56.5 79.3333L55.9167 72.3333H55.3333C49.8111 72.3333 45.125 70.4083 41.275 66.5583C37.425 62.7083 35.5 58.0222 35.5 52.5C35.5 46.9778 37.425 42.2917 41.275 38.4417C45.125 34.5917 49.8111 32.6667 55.3333 32.6667C58.0944 32.6667 60.6712 33.1816 63.0637 34.2114C65.4561 35.2411 67.5561 36.6606 69.3637 38.4697C71.1712 40.2788 72.5899 42.3788 73.6197 44.7697C74.6494 47.1606 75.1651 49.7374 75.1667 52.5C75.1667 55.4167 74.6899 58.2167 73.7363 60.9C72.7828 63.5833 71.48 66.0722 69.828 68.3667C68.176 70.6611 66.2121 72.7417 63.9363 74.6083C61.6606 76.475 59.1818 78.05 56.5 79.3333ZM55.275 65.275C55.9361 65.275 56.5 65.0417 56.9667 64.575C57.4333 64.1083 57.6667 63.5445 57.6667 62.8833C57.6667 62.2222 57.4333 61.6583 56.9667 61.1917C56.5 60.725 55.9361 60.4917 55.275 60.4917C54.6139 60.4917 54.05 60.725 53.5833 61.1917C53.1167 61.6583 52.8833 62.2222 52.8833 62.8833C52.8833 63.5445 53.1167 64.1083 53.5833 64.575C54.05 65.0417 54.6139 65.275 55.275 65.275ZM53.5833 57.8667H57.0833C57.0833 56.7 57.2 55.8833 57.4333 55.4167C57.6667 54.95 58.4056 54.0945 59.65 52.85C60.35 52.15 60.9333 51.3917 61.4 50.575C61.8667 49.7584 62.1 48.8834 62.1 47.95C62.1 45.9667 61.4288 44.4788 60.0863 43.4864C58.7439 42.4939 57.1596 41.9985 55.3333 42C53.6222 42 52.1833 42.4768 51.0167 43.4304C49.85 44.3839 49.0333 45.5405 48.5667 46.9L51.8333 48.1833C52.0278 47.5222 52.3972 46.8705 52.9417 46.228C53.4861 45.5856 54.2833 45.2651 55.3333 45.2667C56.3833 45.2667 57.1704 45.5584 57.6947 46.1417C58.2189 46.725 58.4818 47.3667 58.4833 48.0667C58.4833 48.7278 58.2889 49.3212 57.9 49.847C57.5111 50.3728 57.0444 50.9071 56.5 51.45C55.1389 52.6167 54.3121 53.5407 54.0197 54.222C53.7272 54.9033 53.5818 56.1182 53.5833 57.8667Z" fill="#FF6C00"/>
<rect x="8" y="7.5" width="97" height="97" rx="48.5" stroke="#FCE4D2" stroke-width="15"/>
</svg>
