<svg width="18" height="19" viewBox="0 0 18 19" fill="none" xmlns="http://www.w3.org/2000/svg">
<g id="dots-horizontal">
<path id="Vector" d="M12 9.05273C12 8.65491 12.158 8.27338 12.4393 7.99207C12.7206 7.71077 13.1022 7.55273 13.5 7.55273C13.8978 7.55273 14.2794 7.71077 14.5607 7.99207C14.842 8.27338 15 8.65491 15 9.05273C15 9.45056 14.842 9.83209 14.5607 10.1134C14.2794 10.3947 13.8978 10.5527 13.5 10.5527C13.1022 10.5527 12.7206 10.3947 12.4393 10.1134C12.158 9.83209 12 9.45056 12 9.05273ZM7.5 9.05273C7.5 8.65491 7.65803 8.27338 7.93934 7.99207C8.22064 7.71077 8.60217 7.55273 9 7.55273C9.39782 7.55273 9.77935 7.71077 10.0607 7.99207C10.342 8.27338 10.5 8.65491 10.5 9.05273C10.5 9.45056 10.342 9.83209 10.0607 10.1134C9.77935 10.3947 9.39782 10.5527 9 10.5527C8.60217 10.5527 8.22064 10.3947 7.93934 10.1134C7.65803 9.83209 7.5 9.45056 7.5 9.05273ZM3 9.05273C3 8.65491 3.15804 8.27338 3.43934 7.99207C3.72064 7.71077 4.10218 7.55273 4.5 7.55273C4.89782 7.55273 5.27936 7.71077 5.56066 7.99207C5.84196 8.27338 6 8.65491 6 9.05273C6 9.45056 5.84196 9.83209 5.56066 10.1134C5.27936 10.3947 4.89782 10.5527 4.5 10.5527C4.10218 10.5527 3.72064 10.3947 3.43934 10.1134C3.15804 9.83209 3 9.45056 3 9.05273Z" fill="#555555"/>
</g>
</svg>
