<svg width="65" height="32" viewBox="0 0 65 32" fill="none" xmlns="http://www.w3.org/2000/svg">
<path d="M16.5504 19.5V12.2273H21.5149V13.6548H18.3082V15.1463H21.1989V16.5774H18.3082V19.5H16.5504ZM24.5958 19.603C24.0229 19.603 23.5305 19.4858 23.1185 19.2514C22.709 19.0147 22.3929 18.6856 22.1704 18.2642C21.9502 17.8404 21.8401 17.3492 21.8401 16.7905C21.8401 16.2294 21.9502 15.7382 22.1704 15.3168C22.3929 14.893 22.709 14.5639 23.1185 14.3295C23.5305 14.0928 24.0229 13.9744 24.5958 13.9744C25.1687 13.9744 25.66 14.0928 26.0695 14.3295C26.4815 14.5639 26.7975 14.893 27.0177 15.3168C27.2402 15.7382 27.3515 16.2294 27.3515 16.7905C27.3515 17.3492 27.2402 17.8404 27.0177 18.2642C26.7975 18.6856 26.4815 19.0147 26.0695 19.2514C25.66 19.4858 25.1687 19.603 24.5958 19.603ZM24.6065 18.2926C24.8148 18.2926 24.9912 18.2287 25.1356 18.1009C25.28 17.973 25.3901 17.7955 25.4658 17.5682C25.544 17.3409 25.583 17.0781 25.583 16.7798C25.583 16.4768 25.544 16.2116 25.4658 15.9844C25.3901 15.7571 25.28 15.5795 25.1356 15.4517C24.9912 15.3239 24.8148 15.2599 24.6065 15.2599C24.391 15.2599 24.2087 15.3239 24.0596 15.4517C23.9128 15.5795 23.8004 15.7571 23.7222 15.9844C23.6465 16.2116 23.6086 16.4768 23.6086 16.7798C23.6086 17.0781 23.6465 17.3409 23.7222 17.5682C23.8004 17.7955 23.9128 17.973 24.0596 18.1009C24.2087 18.2287 24.391 18.2926 24.6065 18.2926ZM30.0276 12.2273V19.5H28.2911V12.2273H30.0276ZM32.9194 12.2273V19.5H31.1828V12.2273H32.9194ZM36.6208 19.603C36.0479 19.603 35.5555 19.4858 35.1435 19.2514C34.734 19.0147 34.4179 18.6856 34.1954 18.2642C33.9752 17.8404 33.8651 17.3492 33.8651 16.7905C33.8651 16.2294 33.9752 15.7382 34.1954 15.3168C34.4179 14.893 34.734 14.5639 35.1435 14.3295C35.5555 14.0928 36.0479 13.9744 36.6208 13.9744C37.1937 13.9744 37.685 14.0928 38.0945 14.3295C38.5065 14.5639 38.8225 14.893 39.0427 15.3168C39.2652 15.7382 39.3765 16.2294 39.3765 16.7905C39.3765 17.3492 39.2652 17.8404 39.0427 18.2642C38.8225 18.6856 38.5065 19.0147 38.0945 19.2514C37.685 19.4858 37.1937 19.603 36.6208 19.603ZM36.6315 18.2926C36.8398 18.2926 37.0162 18.2287 37.1606 18.1009C37.305 17.973 37.4151 17.7955 37.4908 17.5682C37.569 17.3409 37.608 17.0781 37.608 16.7798C37.608 16.4768 37.569 16.2116 37.4908 15.9844C37.4151 15.7571 37.305 15.5795 37.1606 15.4517C37.0162 15.3239 36.8398 15.2599 36.6315 15.2599C36.416 15.2599 36.2337 15.3239 36.0846 15.4517C35.9378 15.5795 35.8254 15.7571 35.7472 15.9844C35.6715 16.2116 35.6336 16.4768 35.6336 16.7798C35.6336 17.0781 35.6715 17.3409 35.7472 17.5682C35.8254 17.7955 35.9378 17.973 36.0846 18.1009C36.2337 18.2287 36.416 18.2926 36.6315 18.2926ZM41.218 19.5L39.7976 14.0455H41.5412L42.2763 17.5398H42.3224L43.1108 14.0455H44.8118L45.6214 17.5149H45.6676L46.3814 14.0455H48.125L46.701 19.5H44.8438L43.9915 16.3217H43.9311L43.0788 19.5H41.218Z" fill="#666666"/>
<rect x="0.5" y="1" width="64" height="30" rx="3.5" stroke="#666666"/>
</svg>
