<svg width="16" height="17" viewBox="0 0 16 17" fill="none" xmlns="http://www.w3.org/2000/svg">
<g clip-path="url(#clip0_3796_6053)">
<path d="M4.66732 7.83337L7.33398 1.83337C7.86442 1.83337 8.37313 2.04409 8.7482 2.41916C9.12327 2.79423 9.33398 3.30294 9.33398 3.83337V6.50004H13.1073C13.3006 6.49785 13.492 6.53771 13.6684 6.61685C13.8447 6.696 14.0017 6.81253 14.1286 6.95838C14.2554 7.10424 14.349 7.27592 14.4029 7.46154C14.4568 7.64716 14.4697 7.84228 14.4407 8.03337L13.5207 14.0334C13.4724 14.3513 13.3109 14.6411 13.0659 14.8494C12.8209 15.0576 12.5089 15.1703 12.1873 15.1667H4.66732M4.66732 7.83337V15.1667M4.66732 7.83337H2.66732C2.3137 7.83337 1.97456 7.97385 1.72451 8.2239C1.47446 8.47395 1.33398 8.81309 1.33398 9.16671V13.8334C1.33398 14.187 1.47446 14.5261 1.72451 14.7762C1.97456 15.0262 2.3137 15.1667 2.66732 15.1667H4.66732" stroke="#FF7711" stroke-width="2" stroke-linecap="round" stroke-linejoin="round"/>
</g>
<defs>
<clipPath id="clip0_3796_6053">
<rect width="16" height="16" fill="white" transform="translate(0 0.5)"/>
</clipPath>
</defs>
</svg>
