<svg width="26" height="26" viewBox="0 0 26 26" fill="none" xmlns="http://www.w3.org/2000/svg">
<rect width="26" height="26" rx="10" fill="white" fill-opacity="0.38"/>
<g clip-path="url(#clip0_3796_5564)">
<path d="M18.8941 8.07333C18.5536 7.73267 18.1493 7.46243 17.7043 7.27805C17.2593 7.09368 16.7824 6.99878 16.3007 6.99878C15.8191 6.99878 15.3421 7.09368 14.8972 7.27805C14.4522 7.46243 14.0479 7.73267 13.7074 8.07333L13.0007 8.78L12.2941 8.07333C11.6063 7.38553 10.6734 6.99914 9.70073 6.99914C8.72804 6.99914 7.79519 7.38553 7.1074 8.07333C6.4196 8.76112 6.0332 9.69397 6.0332 10.6667C6.0332 11.6394 6.4196 12.5722 7.1074 13.26L7.81406 13.9667L13.0007 19.1533L18.1874 13.9667L18.8941 13.26C19.2347 12.9195 19.505 12.5152 19.6893 12.0702C19.8737 11.6253 19.9686 11.1483 19.9686 10.6667C19.9686 10.185 19.8737 9.70807 19.6893 9.26309C19.505 8.81812 19.2347 8.41383 18.8941 8.07333Z" stroke="white" stroke-width="2" stroke-linecap="round" stroke-linejoin="round"/>
</g>
<rect x="0.5" y="0.5" width="25" height="25" rx="9.5" stroke="white" stroke-opacity="0.2"/>
<defs>
<clipPath id="clip0_3796_5564">
<rect width="16" height="16" fill="white" transform="translate(5 5)"/>
</clipPath>
</defs>
</svg>
