<svg width="26" height="18" viewBox="0 0 26 18" fill="none" xmlns="http://www.w3.org/2000/svg">
<path d="M26 3.6C26 2.64523 25.6064 1.72941 24.9062 1.05441C24.2057 0.379157 23.256 0 22.2655 0H3.73448C2.74404 0 1.79429 0.379182 1.0938 1.05441C0.393588 1.72941 0 2.64523 0 3.6V14.4C0 15.3548 0.393608 16.2706 1.0938 16.9456C1.79429 17.6208 2.74404 18 3.73448 18H22.2655C23.256 18 24.2057 17.6208 24.9062 16.9456C25.6064 16.2706 26 15.3548 26 14.4V3.6ZM24.5063 3.6L24.5061 14.4C24.5061 14.675 24.4516 14.9474 24.3456 15.2028L17.6235 7.46987L24.4316 3.06C24.4801 3.23603 24.5054 3.41759 24.5064 3.5999L24.5063 3.6ZM22.2655 1.43987C22.7412 1.44138 23.2043 1.58903 23.5875 1.86124L13.0003 8.72246L2.41301 1.88246C2.79333 1.60246 3.25673 1.44728 3.73502 1.43949L22.2655 1.43987ZM1.65451 15.1919C1.54979 14.94 1.49535 14.6713 1.49405 14.3999V3.59987C1.49535 3.4138 1.52166 3.22872 1.57246 3.04917L8.36922 7.4485L1.65451 15.1919ZM3.73455 16.5599C3.35865 16.5594 2.98872 16.4678 2.65922 16.2935L9.61269 8.27965L12.6003 10.2019C12.8522 10.3649 13.1812 10.3649 13.4331 10.2019L16.4208 8.27965L23.3442 16.2826C23.0145 16.4568 22.6446 16.5485 22.2687 16.549L3.73455 16.5599Z" fill="#FF9241"/>
</svg>
