<svg width="31" height="32" viewBox="0 0 31 32" fill="none" xmlns="http://www.w3.org/2000/svg">
<path d="M21.5 16C21.5024 16.9317 21.2847 17.8507 20.8647 18.6823C20.3666 19.6789 19.601 20.517 18.6535 21.103C17.706 21.689 16.614 21.9995 15.5 22C14.5683 22.0024 13.6493 21.7847 12.8177 21.3647L9.50002 22L10.1353 18.6823C9.71526 17.8507 9.49759 16.9317 9.50002 16C9.50045 14.886 9.81104 13.794 10.397 12.8465C10.983 11.899 11.8211 11.1334 12.8177 10.6353C13.6493 10.2153 14.5683 9.99759 15.5 10H15.8529C17.3242 10.0812 18.7139 10.7022 19.7558 11.7441C20.7978 12.7861 21.4188 14.1758 21.5 15.6471V16Z" stroke="#666666" stroke-width="1.5" stroke-linecap="round" stroke-linejoin="round"/>
<path d="M12.5 17C13.0523 17 13.5 16.5523 13.5 16C13.5 15.4477 13.0523 15 12.5 15C11.9477 15 11.5 15.4477 11.5 16C11.5 16.5523 11.9477 17 12.5 17Z" fill="#666666"/>
<path d="M15.5 17C16.0523 17 16.5 16.5523 16.5 16C16.5 15.4477 16.0523 15 15.5 15C14.9477 15 14.5 15.4477 14.5 16C14.5 16.5523 14.9477 17 15.5 17Z" fill="#666666"/>
<path d="M18.5 17C19.0523 17 19.5 16.5523 19.5 16C19.5 15.4477 19.0523 15 18.5 15C17.9477 15 17.5 15.4477 17.5 16C17.5 16.5523 17.9477 17 18.5 17Z" fill="#666666"/>
<rect x="0.5" y="1" width="30" height="30" rx="3.5" stroke="#666666"/>
</svg>
