<svg width="21" height="21" viewBox="0 0 21 21" fill="none" xmlns="http://www.w3.org/2000/svg">
<path d="M11.8197 4.28036C11.8286 3.36373 11.086 2.60645 10.1694 2.59751C9.25273 2.58856 8.49545 3.33121 8.4865 4.24783C8.47756 5.16446 9.2202 5.92174 10.1368 5.93068C11.0534 5.93963 11.8107 5.19698 11.8197 4.28036ZM11.7058 15.9465C11.7148 15.0298 10.9721 14.2726 10.0555 14.2636C9.13889 14.2547 8.38161 14.9973 8.37267 15.9139C8.36372 16.8306 9.10637 17.5878 10.023 17.5968C10.9396 17.6057 11.6969 16.8631 11.7058 15.9465ZM11.7628 10.1134C11.7717 9.19679 11.0291 8.43951 10.1124 8.43056C9.19581 8.42162 8.43853 9.16426 8.42958 10.0809C8.42064 10.9975 9.16329 11.7548 10.0799 11.7637C10.9965 11.7727 11.7538 11.03 11.7628 10.1134Z" fill="#979797"/>
</svg>
