<svg width="28" height="28" viewBox="0 0 28 28" fill="none" xmlns="http://www.w3.org/2000/svg">
<rect width="28" height="28" rx="14" fill="white" fill-opacity="0.3"/>
<g clip-path="url(#clip0_4713_9246)">
<path fill-rule="evenodd" clip-rule="evenodd" d="M16.2506 19.25C16.2507 19.6284 16.1078 19.9929 15.8505 20.2704C15.5932 20.5479 15.2405 20.7179 14.8631 20.7463L14.7506 20.75H13.2506C12.8722 20.7501 12.5077 20.6072 12.2302 20.3499C11.9527 20.0926 11.7828 19.7399 11.7544 19.3625L11.7506 19.25H16.2506ZM14.0006 6.5C15.3619 6.49998 16.6699 7.02867 17.6488 7.97456C18.6277 8.92044 19.2009 10.2096 19.2476 11.57L19.2506 11.75V14.573L20.6171 17.306C20.6768 17.4253 20.7066 17.5572 20.7041 17.6905C20.7016 17.8238 20.6668 17.9545 20.6028 18.0714C20.5387 18.1884 20.4472 18.288 20.3362 18.3619C20.2252 18.4357 20.098 18.4816 19.9654 18.4955L19.8791 18.5H8.12212C7.98874 18.5 7.85734 18.4677 7.73918 18.4059C7.62103 18.344 7.51963 18.2544 7.44368 18.1448C7.36774 18.0351 7.3195 17.9087 7.30312 17.7763C7.28674 17.644 7.30269 17.5096 7.34962 17.3848L7.38412 17.306L8.75062 14.573V11.75C8.75062 10.3576 9.30374 9.02226 10.2883 8.03769C11.2729 7.05312 12.6082 6.5 14.0006 6.5ZM14.0006 8C13.0343 8.00006 12.1052 8.37316 11.4073 9.04149C10.7093 9.70983 10.2963 10.6218 10.2544 11.5872L10.2506 11.75V14.573C10.2506 14.759 10.216 14.9434 10.1486 15.1168L10.0924 15.2443L9.21487 17H18.7871L17.9096 15.2435C17.8264 15.0772 17.7748 14.8969 17.7574 14.7118L17.7506 14.573V11.75C17.7506 10.7554 17.3555 9.80161 16.6523 9.09835C15.949 8.39509 14.9952 8 14.0006 8Z" fill="white"/>
</g>
<defs>
<clipPath id="clip0_4713_9246">
<rect width="18" height="18" fill="white" transform="translate(5 5)"/>
</clipPath>
</defs>
</svg>
