<svg width="20" height="20" viewBox="0 0 20 20" fill="none" xmlns="http://www.w3.org/2000/svg">
<path d="M19.6732 17.5534C19.0303 16.9802 18.4675 16.3232 17.9999 15.6C17.4893 14.6017 17.1834 13.5115 17.0999 12.3934V9.10002C17.0972 8.69999 17.0615 8.30086 16.9932 7.90668C16.4685 7.80179 15.9642 7.61268 15.4999 7.34668C15.6769 7.91658 15.7668 8.50994 15.7665 9.10668V12.4C15.8482 13.764 16.2235 15.0943 16.8665 16.3C17.3268 17.0294 17.8729 17.7008 18.4932 18.3H1.41987C2.04014 17.7008 2.58627 17.0294 3.04654 16.3C3.68961 15.0943 4.06482 13.764 4.14654 12.4V9.10002C4.14303 8.32848 4.29174 7.56382 4.58416 6.84983C4.87659 6.13584 5.30697 5.48655 5.85068 4.93913C6.39439 4.3917 7.04074 3.9569 7.75272 3.65963C8.46469 3.36235 9.22832 3.20843 9.99987 3.20668C11.129 3.20759 12.2329 3.54152 13.1732 4.16668C13.0695 3.78601 13.0114 3.39439 12.9999 3.00002V2.58002C12.3038 2.23759 11.556 2.01234 10.7865 1.91335V1.07335C10.7865 0.837307 10.6928 0.610932 10.5259 0.444025C10.359 0.277117 10.1326 0.18335 9.89653 0.18335C9.66049 0.18335 9.43412 0.277117 9.26721 0.444025C9.1003 0.610932 9.00654 0.837307 9.00654 1.07335V1.94668C7.28368 2.18972 5.70692 3.04785 4.56735 4.36264C3.42778 5.67743 2.80236 7.36011 2.80654 9.10002V12.3934C2.72304 13.5115 2.41705 14.6017 1.90654 15.6C1.44712 16.3216 0.893333 16.9785 0.25987 17.5534C0.188757 17.6158 0.131764 17.6927 0.0926814 17.7789C0.0535988 17.8652 0.033323 17.9587 0.0332031 18.0534V18.96C0.0332031 19.1368 0.103441 19.3064 0.228465 19.4314C0.353489 19.5564 0.523059 19.6267 0.69987 19.6267H19.2332C19.41 19.6267 19.5796 19.5564 19.7046 19.4314C19.8296 19.3064 19.8999 19.1368 19.8999 18.96V18.0534C19.8997 17.9587 19.8795 17.8652 19.8404 17.7789C19.8013 17.6927 19.7443 17.6158 19.6732 17.5534Z" fill="#666666"/>
</svg>
