<svg width="28" height="28" viewBox="0 0 28 28" fill="none" xmlns="http://www.w3.org/2000/svg">
<rect width="28" height="28" rx="14" fill="white" fill-opacity="0.3"/>
<g clip-path="url(#clip0_4713_9243)">
<path d="M8 8H12.5V12.5H8V8ZM20 8V12.5H15.5V8H20ZM15.5 16.25H17V14.75H15.5V13.25H17V14.75H18.5V13.25H20V14.75H18.5V16.25H20V18.5H18.5V20H17V18.5H14.75V20H13.25V17H15.5V16.25ZM17 16.25V18.5H18.5V16.25H17ZM8 20V15.5H12.5V20H8ZM9.5 9.5V11H11V9.5H9.5ZM17 9.5V11H18.5V9.5H17ZM9.5 17V18.5H11V17H9.5ZM8 13.25H9.5V14.75H8V13.25ZM11.75 13.25H14.75V16.25H13.25V14.75H11.75V13.25ZM13.25 9.5H14.75V12.5H13.25V9.5ZM6.5 6.5V9.5H5V6.5C5 6.10218 5.15804 5.72064 5.43934 5.43934C5.72064 5.15804 6.10218 5 6.5 5H9.5V6.5H6.5ZM21.5 5C21.8978 5 22.2794 5.15804 22.5607 5.43934C22.842 5.72064 23 6.10218 23 6.5V9.5H21.5V6.5H18.5V5H21.5ZM6.5 18.5V21.5H9.5V23H6.5C6.10218 23 5.72064 22.842 5.43934 22.5607C5.15804 22.2794 5 21.8978 5 21.5V18.5H6.5ZM21.5 21.5V18.5H23V21.5C23 21.8978 22.842 22.2794 22.5607 22.5607C22.2794 22.842 21.8978 23 21.5 23H18.5V21.5H21.5Z" fill="white"/>
</g>
<defs>
<clipPath id="clip0_4713_9243">
<rect width="18" height="18" fill="white" transform="translate(5 5)"/>
</clipPath>
</defs>
</svg>
