<svg width="14" height="15" viewBox="0 0 14 15" fill="none" xmlns="http://www.w3.org/2000/svg">
<g id="Ticket">
<path id="Rectangle 791" d="M0.861016 4.03819C0.861016 3.53185 1.27148 3.12139 1.77781 3.12139H11.6376C12.1442 3.12139 12.5543 3.53154 12.5543 4.03757V4.04279V4.04801V4.05324V4.05847V4.06371V4.06896V4.07421V4.07946V4.08472V4.08999V4.09526V4.10054V4.10582V4.1111V4.1164V4.12169V4.12699V4.1323V4.13761V4.14293V4.14825V4.15358V4.15891V4.16424V4.16958V4.17493V4.18028V4.18563V4.19099V4.19636V4.20173V4.2071V4.21248V4.21786V4.22325V4.22865V4.23404V4.23944V4.24485V4.25026V4.25568V4.2611V4.26652V4.27195V4.27738V4.28282V4.28826V4.29371V4.29916V4.30462V4.31007V4.31554V4.32101V4.32648V4.33195V4.33743V4.34292V4.34841V4.3539V4.3594V4.3649V4.3704V4.37591V4.38142V4.38694V4.39246V4.39799V4.40352V4.40905V4.41458V4.42012V4.42567V4.43122V4.43677V4.44232V4.44788V4.45345V4.45901V4.46458V4.47016V4.47573V4.48132V4.4869V4.49249V4.49808V4.50368V4.50928V4.51488V4.52048V4.52609V4.53171V4.53732V4.54294V4.54856V4.55419V4.55982V4.56545V4.57109V4.57673V4.58237V4.58802V4.59366V4.59932V4.60497V4.61063V4.61629V4.62196V4.62762V4.63329V4.63897V4.64464V4.65032V4.65601V4.66169V4.66738V4.67307V4.67876V4.68446V4.69016V4.69586V4.70157V4.70728V4.71299V4.7187V4.72442V4.73013V4.73586V4.74158V4.74731V4.75303V4.75877V4.7645V4.77024V4.77598V4.78172V4.78746V4.79321V4.79896V4.80471V4.81046V4.81622V4.82198V4.82774V4.8335V4.83926V4.84503V4.8508V4.85657V4.86235V4.86812V4.8739V4.87968V4.88546V4.89125V4.89703V4.90282V4.90861V4.9144V4.9202V4.92599V4.93179V4.93759V4.94339V4.94919V4.955V4.96081V4.96662V4.97243V4.97824V4.98405V4.98987V4.99569V5.00151V5.00733V5.01315V5.01897V5.0248V5.03062V5.03645V5.04228V5.04811V5.05395V5.05978V5.06562V5.07145V5.07729V5.08313V5.08897V5.09481V5.10066V5.1065V5.11235V5.11819V5.12404V5.12989V5.13574V5.1416V5.14745V5.1533V5.15916V5.16501V5.17087V5.17673V5.18259V5.18845V5.19431V5.20017V5.20603V5.2119V5.21776V5.22362V5.22949V5.23536V5.24122V5.24709V5.25296V5.25883V5.2647V5.27057V5.27644V5.28232V5.28819V5.29406V5.29993V5.30581V5.31168V5.31756V5.32343V5.32931V5.33519V5.34106V5.34694V5.35282V5.3587V5.36457V5.37045V5.37633V5.38221V5.38809V5.39397V5.39985V5.40573V5.41161V5.41749V5.42337V5.42925V5.43513V5.44101V5.44689V5.45277V5.45865V5.46453V5.47041V5.47628V5.48216V5.48804V5.49392V5.4998V5.50568V5.51156V5.51744V5.52331V5.52919V5.53507V5.54095V5.54682V5.5527V5.55857V5.56445V5.57032V5.5762V5.58207V5.58794V5.59382V5.59969V5.60556V5.61143V5.6173V5.62317V5.62904V5.63491V5.64077V5.64664V5.65251V5.65837V5.66424V5.6701V5.67596V5.68182V5.68768V5.69354V5.6994V5.70526V5.71112V5.71697V5.72283V5.72868V5.73454V5.74039V5.74624V5.75209V5.75794V5.76378V5.76963V5.77547V5.78132V5.78716V5.793V5.79884V5.80468V5.81051V5.81635V5.82218V5.82802V5.83385V5.83968V5.84551V5.85133V5.85716V5.86298V5.8688V5.87462V5.88044V5.88626V5.89208V5.89789V5.9037V5.90951V5.91532V5.92113V5.92693V5.93274V5.93854V5.94434V5.95013V5.95593V5.96172V5.96752V5.97331V5.97909V5.98488V5.99066V5.99645V6.00223V6.008V6.01378V6.01955V6.02533V6.03109V6.03686V6.04263V6.04839V6.05415V6.05991V6.06566V6.07142V6.07717V6.08292V6.08866V6.09441V6.10015V6.10589V6.11162V6.11736V6.12309V6.12882V6.13454V6.14027V6.14599V6.15171V6.15742V6.16314V6.16885V6.17455V6.18026V6.18596V6.19166V6.19736V6.20305V6.20874V6.21443V6.22011V6.2258V6.23148V6.23715V6.24283V6.2485V6.25416V6.25983V6.26549V6.27115V6.2768V6.28245V6.2881V6.29375V6.29939V6.30503V6.31066V6.3163V6.32193V6.32755V6.33317V6.33879V6.34441V6.35002V6.35563V6.36124V6.36684V6.37244V6.37803V6.38362V6.38921V6.3948V6.40038V6.40596V6.41153V6.4171V6.42267V6.42823V6.43379V6.43934V6.44489V6.45044V6.45599V6.46153V6.46706V6.47259V6.47812V6.48365V6.48917V6.49468V6.5002V6.50571V6.51121V6.51671V6.52221V6.5277V6.53319V6.53867V6.54415V6.54963V6.5551V6.56057V6.56603V6.57149V6.57694V6.58239V6.58784V6.58823C12.5536 6.58838 12.5528 6.58854 12.552 6.5887C12.4652 6.60592 12.3566 6.62809 12.2439 6.6591C12.0251 6.71933 11.7316 6.82783 11.4924 7.0651C11.2346 7.32093 11.096 7.66923 11.096 8.09306C11.096 8.51698 11.2348 8.86558 11.4956 9.12036C11.7366 9.35575 12.0317 9.46052 12.2486 9.51823C12.3604 9.54796 12.4686 9.56934 12.5536 9.58595L12.5543 9.58609V9.58909V9.59391V9.59873V9.60355V9.60837V9.61319V9.61801V9.62283V9.62764V9.63246V9.63728V9.64209V9.6469V9.65172V9.65653V9.66134V9.66615V9.67096V9.67577V9.68058V9.68539V9.69019V9.695V9.6998V9.70461V9.70941V9.71421V9.71901V9.72381V9.72861V9.73341V9.7382V9.743V9.7478V9.75259V9.75738V9.76218V9.76697V9.77176V9.77655V9.78134V9.78612V9.79091V9.7957V9.80048V9.80526V9.81005V9.81483V9.81961V9.82439V9.82916V9.83394V9.83872V9.84349V9.84827V9.85304V9.85781V9.86258V9.86735V9.87212V9.87689V9.88165V9.88642V9.89118V9.89595V9.90071V9.90547V9.91023V9.91498V9.91974V9.9245V9.92925V9.934V9.93876V9.94351V9.94826V9.95301V9.95775V9.9625V9.96724V9.97199V9.97673V9.98147V9.98621V9.99095V9.99569V10.0004V10.0052V10.0099V10.0146V10.0194V10.0241V10.0288V10.0335V10.0383V10.043V10.0477V10.0524V10.0572V10.0619V10.0666V10.0713V10.076V10.0807V10.0854V10.0902V10.0949V10.0996V10.1043V10.109V10.1137V10.1184V10.1231V10.1278V10.1325V10.1372V10.1419V10.1466V10.1513V10.1559V10.1606V10.1653V10.17V10.1747V10.1794V10.1841V10.1887V10.1934V10.1981V10.2028V10.2074V10.2121V10.2168V10.2215V10.2261V10.2308V10.2354V10.2401V10.2448V10.2494V10.2541V10.2587V10.2634V10.268V10.2727V10.2773V10.282V10.2866V10.2913V10.2959V10.3006V10.3052V10.3098V10.3145V10.3191V10.3237V10.3284V10.333V10.3376V10.3423V10.3469V10.3515V10.3561V10.3607V10.3654V10.37V10.3746V10.3792V10.3838V10.3884V10.393V10.3976V10.4022V10.4068V10.4114V10.416V10.4206V10.4252V10.4298V10.4344V10.439V10.4436V10.4482V10.4527V10.4573V10.4619V10.4665V10.471V10.4756V10.4802V10.4848V10.4893V10.4939V10.4984V10.503V10.5076V10.5121V10.5167V10.5212V10.5258V10.5303V10.5349V10.5394V10.544V10.5485V10.553V10.5576V10.5621V10.5666V10.5712V10.5757V10.5802V10.5848V10.5893V10.5938V10.5983V10.6028V10.6073V10.6119V10.6164V10.6209V10.6254V10.6299V10.6344V10.6389V10.6434V10.6479V10.6524V10.6569V10.6613V10.6658V10.6703V10.6748V10.6793V10.6837V10.6882V10.6927V10.6972V10.7016V10.7061V10.7106V10.715V10.7195V10.7239V10.7284V10.7328V10.7373V10.7417V10.7462V10.7506V10.7551V10.7595V10.7639V10.7684V10.7728V10.7772V10.7817V10.7861V10.7905V10.7949V10.7993V10.8038V10.8082V10.8126V10.817V10.8214V10.8258V10.8302V10.8346V10.839V10.8434V10.8478V10.8522V10.8566V10.8609V10.8653V10.8697V10.8741V10.8784V10.8828V10.8872V10.8916V10.8959V10.9003V10.9046V10.909V10.9133V10.9177V10.922V10.9264V10.9307V10.9351V10.9394V10.9437V10.9481V10.9524V10.9567V10.9611V10.9654V10.9697V10.974V10.9783V10.9826V10.987V10.9913V10.9956V10.9999V11.0042V11.0085V11.0128V11.017V11.0213V11.0256V11.0299V11.0342V11.0385V11.0427V11.047V11.0513V11.0555V11.0598V11.0641V11.0683V11.0726V11.0768V11.0811V11.0853V11.0896V11.0938V11.098V11.1023V11.1065V11.1107V11.115V11.1192V11.1234V11.1276V11.1319V11.1361V11.1403V11.1445V11.1487V11.1529V11.1571V11.1613V11.1655V11.1697V11.1738V11.178V11.1822V11.1864V11.1906V11.1947V11.1989V11.2031V11.2072V11.2114V11.2156V11.2197V11.2239V11.228V11.2322V11.2363V11.2404V11.2446V11.2487V11.2528V11.257V11.2611V11.2652V11.2693V11.2734V11.2775V11.2817V11.2858V11.2899V11.294V11.2981V11.3022V11.3062V11.3103V11.3144V11.3185V11.3226V11.3266V11.3307V11.3348V11.3388V11.3429V11.347V11.351V11.3551V11.3591V11.3632V11.3672V11.3713V11.3753V11.3793V11.3833V11.3874V11.3914V11.3954V11.3994V11.4034V11.4075V11.4115V11.4155V11.4195V11.4235V11.4275V11.4314V11.4354V11.4394V11.4434V11.4474V11.4513V11.4553V11.4593V11.4632V11.4672V11.4712V11.4751V11.4791V11.483V11.487V11.4909V11.4948V11.4988V11.5027V11.5066V11.5105V11.5145V11.5184V11.5223V11.5262V11.5301V11.534V11.5379V11.5418V11.5457V11.5496V11.5535V11.5573V11.5612V11.5651C12.5543 12.0712 12.1441 12.4814 11.6376 12.4814H1.77781C1.27148 12.4814 0.861016 12.0709 0.861016 11.5646V10.1087C0.861016 9.88978 1.0166 9.70177 1.23164 9.66081C2.96139 9.33133 2.96139 6.85479 1.23164 6.52531C1.0166 6.48435 0.861016 6.29634 0.861016 6.07743V4.03819ZM12.7781 9.63619C12.7781 9.63619 12.7774 9.63595 12.7762 9.63544L12.7781 9.63619Z" stroke="#333333" stroke-width="1.14"/>
<path id="Line 86" d="M7.305 4.88501C7.305 5.19981 7.5602 5.45501 7.875 5.45501C8.1898 5.45501 8.445 5.19981 8.445 4.88501H7.305ZM7.305 3.13501V4.88501H8.445V3.13501H7.305Z" fill="#333333"/>
<path id="Line 88" d="M8.44597 10.7106C8.44141 10.3958 8.18255 10.1443 7.86778 10.1489C7.55301 10.1534 7.30153 10.4123 7.30609 10.7271L8.44597 10.7106ZM8.47131 12.4604L8.44597 10.7106L7.30609 10.7271L7.33143 12.4769L8.47131 12.4604Z" fill="#333333"/>
<path id="Line 87" d="M7.875 7.21863V8.38529" stroke="#333333" stroke-width="1.14" stroke-linecap="round"/>
</g>
</svg>
