<svg width="75" height="64" viewBox="0 0 75 64" fill="none" xmlns="http://www.w3.org/2000/svg">
<path d="M27 26.5C27 25.3954 27.8954 24.5 29 24.5H45C46.1048 24.5 47 25.3951 47 26.4994V26.5079V26.5163V26.5248V26.5333V26.5417V26.5502V26.5587V26.5672V26.5757V26.5842V26.5927V26.6012V26.6098V26.6183V26.6268V26.6354V26.6439V26.6525V26.661V26.6696V26.6781V26.6867V26.6953V26.7039V26.7125V26.7211V26.7296V26.7383V26.7469V26.7555V26.7641V26.7727V26.7814V26.79V26.7986V26.8073V26.8159V26.8246V26.8332V26.8419V26.8506V26.8592V26.8679V26.8766V26.8853V26.894V26.9027V26.9114V26.9201V26.9288V26.9375V26.9463V26.955V26.9637V26.9725V26.9812V26.9899V26.9987V27.0074V27.0162V27.025V27.0337V27.0425V27.0513V27.0601V27.0688V27.0776V27.0864V27.0952V27.104V27.1128V27.1216V27.1304V27.1393V27.1481V27.1569V27.1657V27.1746V27.1834V27.1922V27.2011V27.2099V27.2188V27.2276V27.2365V27.2454V27.2542V27.2631V27.272V27.2809V27.2897V27.2986V27.3075V27.3164V27.3253V27.3342V27.3431V27.352V27.3609V27.3698V27.3787V27.3877V27.3966V27.4055V27.4144V27.4234V27.4323V27.4412V27.4502V27.4591V27.4681V27.477V27.486V27.4949V27.5039V27.5128V27.5218V27.5308V27.5397V27.5487V27.5577V27.5667V27.5756V27.5846V27.5936V27.6026V27.6116V27.6206V27.6296V27.6386V27.6476V27.6566V27.6656V27.6746V27.6836V27.6926V27.7016V27.7106V27.7197V27.7287V27.7377V27.7467V27.7558V27.7648V27.7738V27.7829V27.7919V27.8009V27.81V27.819V27.828V27.8371V27.8461V27.8552V27.8642V27.8733V27.8823V27.8914V27.9005V27.9095V27.9186V27.9276V27.9367V27.9458V27.9548V27.9639V27.973V27.9821V27.9911V28.0002V28.0093V28.0184V28.0274V28.0365V28.0456V28.0547V28.0638V28.0728V28.0819V28.091V28.1001V28.1092V28.1183V28.1274V28.1365V28.1456V28.1547V28.1637V28.1728V28.1819V28.191V28.2001V28.2092V28.2183V28.2274V28.2365V28.2456V28.2547V28.2638V28.2729V28.282V28.2911V28.3002V28.3094V28.3185V28.3276V28.3367V28.3458V28.3549V28.364V28.3731V28.3822V28.3913V28.4004V28.4095V28.4186V28.4277V28.4369V28.446V28.4551V28.4642V28.4733V28.4824V28.4915V28.5006V28.5097V28.5188V28.5279V28.537V28.5461V28.5553V28.5644V28.5735V28.5826V28.5917V28.6008V28.6099V28.619V28.6281V28.6372V28.6463V28.6554V28.6645V28.6736V28.6827V28.6918V28.7009V28.71V28.7191V28.7282V28.7373V28.7464V28.7555V28.7646V28.7737V28.7827V28.7918V28.8009V28.81V28.8191V28.8282V28.8373V28.8463V28.8554V28.8645V28.8736V28.8827V28.8917V28.9008V28.9099V28.919V28.928V28.9371V28.9462V28.9552V28.9643V28.9734V28.9824V28.9915V29.0005V29.0096V29.0187V29.0277V29.0368V29.0458V29.0549V29.0639V29.073V29.082V29.091V29.1001V29.1091V29.1181V29.1272V29.1362V29.1452V29.1543V29.1633V29.1723V29.1813V29.1904V29.1994V29.2084V29.2174V29.2264V29.2354V29.2444V29.2534V29.2624V29.2714V29.2804V29.2894V29.2984V29.3074V29.3164V29.3253V29.3343V29.3433V29.3523V29.3612V29.3702V29.3792V29.3881V29.3971V29.406V29.415V29.4239V29.4329V29.4418V29.4508V29.4597V29.4687V29.4776V29.4865V29.4954V29.5044V29.5133V29.5222V29.5311V29.54V29.5489V29.5578V29.5667V29.5756V29.5845V29.5934V29.6023V29.6112V29.6201V29.6289V29.6378V29.6467V29.6555V29.6644V29.6733V29.6821V29.691V29.6998V29.7087V29.7175V29.7263V29.7352V29.744V29.7528V29.7616V29.7704V29.7793V29.7881V29.7969V29.8057V29.8145V29.8232V29.832V29.8408V29.8496V29.8584V29.8671V29.8759V29.8847V29.8934V29.9022V29.9109V29.9197V29.9284V29.9371V29.9459V29.9546V29.9633V29.972V29.9807V29.9894V29.9981V30.0068V30.0155V30.0242V30.0329V30.0416V30.0502V30.0589V30.0676V30.0762V30.0849V30.0935V30.1022V30.1108V30.1194V30.1281V30.1367V30.1453V30.1539V30.1625V30.1711V30.1797V30.1883V30.1969V30.2055V30.2141V30.2226V30.2312V30.2398V30.2483V30.2569V30.2654V30.2739V30.2825V30.291V30.2995V30.308V30.3165V30.325V30.3335V30.342V30.3505V30.359V30.3675V30.3759V30.3844V30.3928V30.4013V30.4015C46.8536 30.4307 46.6724 30.468 46.4846 30.5197C46.108 30.6234 45.6004 30.8107 45.1863 31.2216C44.7394 31.665 44.5 32.2681 44.5 33C44.5 33.732 44.7397 34.3358 45.1919 34.7774C45.6092 35.1851 46.1196 35.3659 46.4929 35.4652C46.6777 35.5144 46.8569 35.5503 47 35.5783V35.5784V35.5856V35.5928V35.5999V35.6071V35.6143V35.6215V35.6287V35.6359V35.6431V35.6503V35.6575V35.6647V35.6718V35.679V35.6862V35.6934V35.7006V35.7078V35.7149V35.7221V35.7293V35.7365V35.7436V35.7508V35.758V35.7651V35.7723V35.7795V35.7866V35.7938V35.801V35.8081V35.8153V35.8225V35.8296V35.8368V35.8439V35.8511V35.8582V35.8654V35.8726V35.8797V35.8869V35.894V35.9011V35.9083V35.9154V35.9226V35.9297V35.9369V35.944V35.9511V35.9583V35.9654V35.9725V35.9797V35.9868V35.9939V36.0011V36.0082V36.0153V36.0224V36.0296V36.0367V36.0438V36.0509V36.058V36.0651V36.0723V36.0794V36.0865V36.0936V36.1007V36.1078V36.1149V36.122V36.1291V36.1362V36.1433V36.1504V36.1575V36.1646V36.1717V36.1788V36.1859V36.193V36.2V36.2071V36.2142V36.2213V36.2284V36.2354V36.2425V36.2496V36.2567V36.2637V36.2708V36.2779V36.2849V36.292V36.2991V36.3061V36.3132V36.3202V36.3273V36.3344V36.3414V36.3485V36.3555V36.3626V36.3696V36.3766V36.3837V36.3907V36.3978V36.4048V36.4118V36.4189V36.4259V36.4329V36.44V36.447V36.454V36.461V36.468V36.4751V36.4821V36.4891V36.4961V36.5031V36.5101V36.5171V36.5241V36.5311V36.5381V36.5451V36.5521V36.5591V36.5661V36.5731V36.5801V36.5871V36.5941V36.6011V36.608V36.615V36.622V36.629V36.6359V36.6429V36.6499V36.6568V36.6638V36.6708V36.6777V36.6847V36.6916V36.6986V36.7055V36.7125V36.7194V36.7264V36.7333V36.7403V36.7472V36.7542V36.7611V36.768V36.775V36.7819V36.7888V36.7957V36.8027V36.8096V36.8165V36.8234V36.8303V36.8372V36.8441V36.851V36.8579V36.8648V36.8717V36.8786V36.8855V36.8924V36.8993V36.9062V36.9131V36.92V36.9269V36.9337V36.9406V36.9475V36.9544V36.9612V36.9681V36.975V36.9818V36.9887V36.9955V37.0024V37.0092V37.0161V37.0229V37.0298V37.0366V37.0435V37.0503V37.0571V37.064V37.0708V37.0776V37.0845V37.0913V37.0981V37.1049V37.1117V37.1185V37.1253V37.1322V37.139V37.1458V37.1526V37.1594V37.1662V37.1729V37.1797V37.1865V37.1933V37.2001V37.2069V37.2136V37.2204V37.2272V37.234V37.2407V37.2475V37.2542V37.261V37.2678V37.2745V37.2813V37.288V37.2947V37.3015V37.3082V37.315V37.3217V37.3284V37.3352V37.3419V37.3486V37.3553V37.362V37.3687V37.3755V37.3822V37.3889V37.3956V37.4023V37.409V37.4157V37.4224V37.429V37.4357V37.4424V37.4491V37.4558V37.4624V37.4691V37.4758V37.4824V37.4891V37.4958V37.5024V37.5091V37.5157V37.5224V37.529V37.5357V37.5423V37.5489V37.5556V37.5622V37.5688V37.5754V37.5821V37.5887V37.5953V37.6019V37.6085V37.6151V37.6217V37.6283V37.6349V37.6415V37.6481V37.6547V37.6613V37.6678V37.6744V37.681V37.6876V37.6941V37.7007V37.7073V37.7138V37.7204V37.7269V37.7335V37.74V37.7466V37.7531V37.7596V37.7662V37.7727V37.7792V37.7858V37.7923V37.7988V37.8053V37.8118V37.8183V37.8248V37.8313V37.8378V37.8443V37.8508V37.8573V37.8638V37.8703V37.8767V37.8832V37.8897V37.8961V37.9026V37.9091V37.9155V37.922V37.9284V37.9349V37.9413V37.9477V37.9542V37.9606V37.967V37.9735V37.9799V37.9863V37.9927V37.9991V38.0055V38.012V38.0184V38.0248V38.0311V38.0375V38.0439V38.0503V38.0567V38.0631V38.0694V38.0758V38.0822V38.0885V38.0949V38.1013V38.1076V38.1139V38.1203V38.1266V38.133V38.1393V38.1456V38.152V38.1583V38.1646V38.1709V38.1772V38.1835V38.1898V38.1961V38.2024V38.2087V38.215V38.2213V38.2276V38.2339V38.2401V38.2464V38.2527V38.2589V38.2652V38.2715V38.2777V38.284V38.2902V38.2964V38.3027V38.3089V38.3151V38.3214V38.3276V38.3338V38.34V38.3462V38.3524V38.3586V38.3648V38.371V38.3772V38.3834V38.3896V38.3958V38.4019V38.4081V38.4143V38.4204V38.4266V38.4327V38.4389V38.445V38.4512V38.4573V38.4635V38.4696V38.4757V38.4818V38.488V38.4941V38.5002C47 39.6047 46.1046 40.5 45 40.5H29C27.8954 40.5 27 39.6046 27 38.5V36.4554C27 36.0911 27.2589 35.7782 27.6168 35.71C30.6068 35.1405 30.6068 30.8595 27.6168 30.29C27.2589 30.2218 27 29.9089 27 29.5446V26.5ZM47.3988 35.6669C47.3987 35.6669 47.3973 35.6664 47.3947 35.6653C47.3975 35.6663 47.3988 35.6669 47.3988 35.6669Z" stroke="#FF7711" stroke-width="2"/>
<path d="M38 27.5C38 28.0523 38.4477 28.5 39 28.5C39.5523 28.5 40 28.0523 40 27.5H38ZM38 24.5V27.5H40V24.5H38Z" fill="#FF7711"/>
<path d="M39.9994 37.4858C39.9914 36.9336 39.5373 36.4924 38.9851 36.5004C38.4328 36.5084 37.9916 36.9626 37.9996 37.5148L39.9994 37.4858ZM40.0429 40.4855L39.9994 37.4858L37.9996 37.5148L38.0431 40.5145L40.0429 40.4855Z" fill="#FF7711"/>
<path d="M39 31.5V33.5" stroke="#FF7711" stroke-width="2" stroke-linecap="round"/>
</svg>
