<svg width="40" height="40" viewBox="0 0 40 40" fill="none" xmlns="http://www.w3.org/2000/svg">
<g clip-path="url(#clip0_7006_41874)">
<path d="M26.6673 6.66602C27.9427 6.66594 29.1698 7.15322 30.0977 8.02816C31.0257 8.90309 31.5842 10.0995 31.659 11.3727L31.6673 11.666V14.9993C32.9427 14.9993 34.1698 15.4866 35.0977 16.3615C36.0257 17.2364 36.5842 18.4329 36.659 19.706L36.6673 19.9993V26.666C36.6674 27.9414 36.1801 29.1685 35.3052 30.0965C34.4302 31.0244 33.2338 31.5829 31.9607 31.6577L31.6673 31.666V33.276C31.6673 34.976 29.7623 35.9327 28.4107 34.9977L28.2507 34.8777L24.3973 31.666H18.334C17.1054 31.6678 15.9194 31.2155 15.004 30.396L14.7707 30.1727L11.6673 32.4993C10.349 33.4877 8.49065 32.6244 8.34398 31.0344L8.33398 30.8327V28.3327C7.05863 28.3328 5.83146 27.8455 4.90355 26.9705C3.97564 26.0956 3.41714 24.8992 3.34232 23.626L3.33398 23.3327V11.666C3.33391 10.3907 3.82119 9.16349 4.69612 8.23558C5.57105 7.30767 6.7675 6.74917 8.04065 6.67435L8.33398 6.66602H26.6673ZM31.6673 18.3327H18.334C17.892 18.3327 17.468 18.5083 17.1555 18.8208C16.8429 19.1334 16.6673 19.5573 16.6673 19.9993V26.666C16.6673 27.108 16.8429 27.532 17.1555 27.8445C17.468 28.1571 17.892 28.3327 18.334 28.3327H24.3973C25.177 28.333 25.9319 28.6067 26.5307 29.106L28.344 30.616C28.3982 29.9929 28.684 29.4128 29.1449 28.9901C29.6059 28.5674 30.2086 28.3328 30.834 28.3327H31.6673C32.1093 28.3327 32.5333 28.1571 32.8458 27.8445C33.1584 27.532 33.334 27.108 33.334 26.666V19.9993C33.334 19.5573 33.1584 19.1334 32.8458 18.8208C32.5333 18.5083 32.1093 18.3327 31.6673 18.3327ZM26.6673 9.99935H8.33398C7.89196 9.99935 7.46803 10.1749 7.15547 10.4875C6.84291 10.8001 6.66732 11.224 6.66732 11.666V23.3327C6.66732 23.7747 6.84291 24.1986 7.15547 24.5112C7.46803 24.8238 7.89196 24.9993 8.33398 24.9993H9.16732C9.83036 24.9993 10.4662 25.2627 10.9351 25.7316C11.4039 26.2004 11.6673 26.8363 11.6673 27.4993V28.3327L13.3507 27.071C13.3397 26.9363 13.3341 26.8012 13.334 26.666V19.9993C13.334 18.6733 13.8608 17.4015 14.7984 16.4638C15.7361 15.5261 17.0079 14.9993 18.334 14.9993H28.334V11.666C28.334 11.224 28.1584 10.8001 27.8458 10.4875C27.5333 10.1749 27.1093 9.99935 26.6673 9.99935Z" fill="#FF9241"/>
</g>
<defs>
<clipPath id="clip0_7006_41874">
<rect width="40" height="40" fill="white"/>
</clipPath>
</defs>
</svg>
